<svg width="456" height="456" viewBox="0 0 456 456" fill="none" xmlns="http://www.w3.org/2000/svg">
<path fill-rule="evenodd" clip-rule="evenodd" d="M400 25C400 11.1929 388.807 0 375 0H25C11.1929 0 0 11.1929 0 25V375C0 388.807 11.1929 400 25 400H226.753C249.136 433.749 287.47 456 331 456C400.036 456 456 400.036 456 331C456 287.47 433.749 249.136 400 226.753V25ZM375 213.964V50C375 36.1929 363.807 25 350 25H50C36.1929 25 25 36.1929 25 50V350C25 363.807 36.1929 375 50 375H213.964C209.822 363.988 207.19 352.238 206.319 340H85C71.1929 340 60 328.807 60 315V85C60 71.1929 71.1929 60 85 60H315C328.807 60 340 71.1929 340 85V206.319C352.238 207.19 363.988 209.822 375 213.964ZM315 207.014V110C315 96.1929 303.807 85 290 85H110C96.1929 85 85 96.1929 85 110V231.789L143.854 170.097L149.784 163.881L156.823 168.807L194.429 195.124L225.119 160.38L231.252 153.436L238.643 159.022L304.518 208.811C307.962 208.068 311.458 207.467 315 207.014ZM305.165 234.369L305.97 234.978L306.737 233.964C314.505 232.028 322.632 231 331 231C386.228 231 431 275.772 431 331C431 386.228 386.228 431 331 431C275.772 431 231 386.228 231 331C231 284.705 262.459 245.758 305.165 234.369ZM281.248 216.293L233.975 180.564L115.226 315H207.014C212.686 270.609 241.642 233.495 281.248 216.293ZM181.104 210.21L93.8022 309.044C88.4162 304.458 85 297.628 85 290V260.764L152.394 190.119L181.104 210.21ZM253 331C253 325.477 257.477 321 263 321H321V262.5C321 256.977 325.477 252.5 331 252.5C336.523 252.5 341 256.977 341 262.5V321H398.5C404.023 321 408.5 325.477 408.5 331C408.5 336.523 404.023 341 398.5 341H341V398C341 403.523 336.523 408 331 408C325.477 408 321 403.523 321 398V341H263C257.477 341 253 336.523 253 331Z" fill="black"/>
</svg>
